<svg width="30" height="30" viewBox="0 0 30 30" fill="none" xmlns="http://www.w3.org/2000/svg">
<g clip-path="url(#clip0_472_596)">
<path d="M29.4 12.0001V3.6001H24.6V0.600098H23.4V3.6001H6.59998V0.600098H5.39998V3.6001H0.599976V29.4001H29.4V12.0001ZM1.79998 4.8001H5.39998V7.8001H6.59998V4.8001H23.4V7.8001H24.6V4.8001H28.2V10.8001H1.79998V4.8001ZM1.79998 28.2001V12.0001H28.2V28.2001H1.79998Z" fill="#A1A1A1"/>
<path d="M3.59998 26.3999H26.4V14.3999H3.59998V26.3999ZM4.79998 22.7999H7.19998V25.1999H4.79998V22.7999ZM21.6 21.5999H19.2V19.1999H21.6V21.5999ZM22.8 19.1999H25.2V21.5999H22.8V19.1999ZM12 22.7999H14.4V25.1999H12V22.7999ZM10.8 25.1999H8.39998V22.7999H10.8V25.1999ZM14.4 21.5999H12V19.1999H14.4V21.5999ZM15.6 19.1999H18V21.5999H15.6V19.1999ZM15.6 22.7999H18V25.1999H15.6V22.7999ZM19.2 22.7999H21.6V25.1999H19.2V22.7999ZM19.2 17.9999V15.5999H21.6V17.9999H19.2ZM18 17.9999H15.6V15.5999H18V17.9999ZM14.4 17.9999H12V15.5999H14.4V17.9999ZM10.8 17.9999H8.39998V15.5999H10.8V17.9999ZM10.8 19.1999V21.5999H8.39998V19.1999H10.8ZM7.19998 21.5999H4.79998V19.1999H7.19998V21.5999ZM22.8 25.1999V22.7999H25.2V25.1999H22.8ZM25.2 17.9999H22.8V15.5999H25.2V17.9999ZM7.19998 15.5999V17.9999H4.79998V15.5999H7.19998Z" fill="#A1A1A1"/>
</g>
<defs>
<clipPath id="clip0_472_596">
<rect width="30" height="30" fill="white"/>
</clipPath>
</defs>
</svg>
